<?xml version="1.0" standalone="no"?>
<svg version="1.0" xmlns="http://www.w3.org/2000/svg"
 width="1801.000000pt" height="756.000000pt" viewBox="0 0 1801.000000 756.000000"
 preserveAspectRatio="xMidYMid meet">
<g transform="translate(0.000000,756.000000) scale(0.100000,-0.100000)"
fill="#e50914" stroke="none">
<path d="M1860 3780 c0 -1056 3 -1920 6 -1920 3 0 136 18 295 40 159 22 296
40 304 40 13 0 15 127 17 1016 l3 1016 335 -961 c184 -529 337 -966 341 -972
5 -9 412 28 627 57 l42 6 0 1799 0 1799 -305 0 -305 0 -2 -1064 -3 -1063 -294
816 c-162 449 -335 927 -384 1064 l-90 247 -293 0 -294 0 0 -1920z"/>
<path d="M4400 3930 l0 -1770 25 0 c13 0 156 11 317 25 378 32 1257 95 1326
95 9 0 12 67 12 300 l0 300 -32 0 c-62 0 -846 -53 -975 -66 l-63 -6 0 446 0
446 405 0 405 0 0 300 0 300 -405 0 -405 0 0 400 0 400 535 0 535 0 0 300 0
300 -840 0 -840 0 0 -1770z"/>
<path d="M6450 5400 l0 -300 315 0 315 0 0 -1386 0 -1386 233 6 c127 4 265 9
305 12 l72 6 0 1374 0 1374 315 0 315 0 0 300 0 300 -935 0 -935 0 0 -300z"/>
<path d="M8700 4030 l0 -1670 305 0 305 0 0 685 0 685 405 0 405 0 0 300 0
300 -405 0 -405 0 0 385 0 385 535 0 535 0 0 300 0 300 -840 0 -840 0 0 -1670z"/>
<path d="M10760 4017 l0 -1684 198 -7 c355 -12 1236 -58 1380 -72 l62 -6 0
301 0 301 -22 4 c-13 3 -111 10 -218 16 -485 27 -727 40 -757 40 l-33 0 0
1395 0 1395 -305 0 -305 0 0 -1683z"/>
<path d="M12890 3957 l0 -1743 233 -18 c127 -10 265 -21 305 -23 l72 -6 0
1767 0 1766 -305 0 -305 0 0 -1743z"/>
<path d="M14000 5696 c0 -3 155 -406 345 -895 190 -489 345 -896 345 -903 0
-7 -171 -409 -380 -893 l-379 -880 302 -32 c166 -17 312 -32 323 -32 19 -1 48
62 239 505 128 295 221 500 225 492 4 -7 101 -256 215 -553 115 -297 211 -543
214 -546 3 -4 148 -26 321 -49 173 -23 328 -44 344 -47 26 -6 28 -4 24 18 -3
13 -177 467 -388 1009 -210 542 -383 990 -383 995 0 6 174 412 387 904 212
491 386 897 386 902 0 5 -150 9 -334 9 l-333 0 -214 -496 c-156 -363 -216
-491 -221 -477 -4 10 -91 232 -192 493 l-184 475 -331 3 c-182 1 -331 0 -331
-2z"/>
</g>
</svg>
